<svg xmlns="http://www.w3.org/2000/svg" xmlns:xlink="http://www.w3.org/1999/xlink" width="591" height="618" fill="#000" fill-opacity="1" stroke="#000" stroke-dasharray="none" stroke-dashoffset="0" stroke-linecap="square" stroke-linejoin="miter" stroke-miterlimit="10" stroke-opacity="1" stroke-width="1" color-interpolation="auto" color-rendering="auto" font-family="'Dialog'" font-size="12" font-style="normal" font-weight="normal" image-rendering="auto" shape-rendering="auto" text-rendering="auto"><g><defs id="defs1"><linearGradient id="linearGradient1" x1="284.624" x2="506.96" y1="233.242" y2="273.242" gradientUnits="userSpaceOnUse" spreadMethod="pad"><stop offset="0%" stop-color="#FC9" stop-opacity="1"/><stop offset="100%" stop-color="red" stop-opacity="1"/></linearGradient><linearGradient id="linearGradient2" x1="292.304" x2="499.28" y1="127.561" y2="167.561" gradientUnits="userSpaceOnUse" spreadMethod="pad"><stop offset="0%" stop-color="#E8EEF7" stop-opacity="1"/><stop offset="100%" stop-color="#B7C9E3" stop-opacity="1"/></linearGradient><linearGradient id="linearGradient3" x1="319.792" x2="471.792" y1="392.442" y2="475.392" gradientUnits="userSpaceOnUse" spreadMethod="pad"><stop offset="0%" stop-color="#FC9" stop-opacity="1"/><stop offset="100%" stop-color="red" stop-opacity="1"/></linearGradient><linearGradient id="linearGradient4" x1="317.309" x2="474.276" y1="212.442" y2="233.242" gradientUnits="userSpaceOnUse" spreadMethod="pad"><stop offset="0%" stop-color="#E8EEF7" stop-opacity="1"/><stop offset="100%" stop-color="#B7C9E3" stop-opacity="1"/></linearGradient><linearGradient id="linearGradient5" x1="317.309" x2="474.276" y1="273.242" y2="294.042" gradientUnits="userSpaceOnUse" spreadMethod="pad"><stop offset="0%" stop-color="#E8EEF7" stop-opacity="1"/><stop offset="100%" stop-color="#B7C9E3" stop-opacity="1"/></linearGradient><linearGradient id="linearGradient6" x1="292.304" x2="499.28" y1="322.442" y2="362.442" gradientUnits="userSpaceOnUse" spreadMethod="pad"><stop offset="0%" stop-color="#E8EEF7" stop-opacity="1"/><stop offset="100%" stop-color="#B7C9E3" stop-opacity="1"/></linearGradient><linearGradient id="linearGradient7" x1="292.304" x2="499.28" y1="20.315" y2="60.315" gradientUnits="userSpaceOnUse" spreadMethod="pad"><stop offset="0%" stop-color="#E8EEF7" stop-opacity="1"/><stop offset="100%" stop-color="#B7C9E3" stop-opacity="1"/></linearGradient><linearGradient id="linearGradient8" x1="-8.488" x2="198.488" y1="20.315" y2="60.315" gradientUnits="userSpaceOnUse" spreadMethod="pad"><stop offset="0%" stop-color="#E8EEF7" stop-opacity="1"/><stop offset="100%" stop-color="#B7C9E3" stop-opacity="1"/></linearGradient><linearGradient id="linearGradient9" x1="45.993" x2="144.007" y1="-44.187" y2="-4.187" gradientUnits="userSpaceOnUse" spreadMethod="pad"><stop offset="0%" stop-color="#E8EEF7" stop-opacity="1"/><stop offset="100%" stop-color="#B7C9E3" stop-opacity="1"/></linearGradient><linearGradient id="linearGradient10" x1="-8.488" x2="198.488" y1="413.917" y2="453.917" gradientUnits="userSpaceOnUse" spreadMethod="pad"><stop offset="0%" stop-color="#E8EEF7" stop-opacity="1"/><stop offset="100%" stop-color="#B7C9E3" stop-opacity="1"/></linearGradient><clipPath id="clipPath1" clipPathUnits="userSpaceOnUse"><path d="M0 0 L591 0 L591 618 L0 618 L0 0 Z"/></clipPath><clipPath id="clipPath2" clipPathUnits="userSpaceOnUse"><path d="M-39 -97 L552 -97 L552 521 L-39 521 L-39 -97 Z"/></clipPath></defs><g fill="#fff" stroke="#fff" transform="translate(39,97)"><rect width="591" height="618" x="-39" y="-97" stroke="none" clip-path="url(#clipPath2)"/></g><g fill="#F5F5F5" stroke="#F5F5F5" transform="matrix(1,0,0,1,39,97)"><rect width="282.336" height="586.956" x="254.624" y="-81.564" stroke="none" clip-path="url(#clipPath2)" rx="4" ry="4"/><rect width="282.336" height="22.377" x="254.624" y="-81.564" fill="#EBEBEB" stroke="none" clip-path="url(#clipPath2)"/></g><g stroke-linecap="butt" stroke-miterlimit="1.45" font-family="sans-serif" font-size="15" transform="matrix(1,0,0,1,39,97)"><text x="448.286" y="-64.483" stroke="none" clip-path="url(#clipPath2)" xml:space="preserve">CORNFIELD</text><rect width="282.336" height="586.956" x="254.624" y="-81.564" fill="none" stroke-dasharray="6 2" clip-path="url(#clipPath2)" rx="4" ry="4"/></g><g fill="#E1E1E1" stroke="#E1E1E1" transform="matrix(1,0,0,1,39,97)"><rect width="252.336" height="407.08" x="269.624" y="83.312" stroke="none" clip-path="url(#clipPath2)" rx="4" ry="4"/><rect width="252.336" height="22.377" x="269.624" y="83.312" fill="#EBEBEB" stroke="none" clip-path="url(#clipPath2)"/></g><g stroke-linecap="butt" stroke-miterlimit="1.45" font-family="sans-serif" font-size="15" transform="matrix(1,0,0,1,39,97)"><text x="348.185" y="100.393" stroke="none" clip-path="url(#clipPath2)" xml:space="preserve">Dashboard route in app.js</text><rect width="252.336" height="407.08" x="269.624" y="83.312" fill="none" stroke-dasharray="6 2" clip-path="url(#clipPath2)" rx="4" ry="4"/></g><g fill="url(#linearGradient1)" stroke="url(#linearGradient1)" stroke-linecap="butt" stroke-miterlimit="1.45" transform="matrix(1,0,0,1,39,97)"><path stroke="none" d="M294.8243 233.2423 L506.9603 233.2423 L496.7603 273.2423 L284.6243 273.2423 Z" clip-path="url(#clipPath2)"/><path fill="none" stroke="#000" d="M294.8243 233.2423 L506.9603 233.2423 L496.7603 273.2423 L284.6243 273.2423 Z" clip-path="url(#clipPath2)"/><text x="301.087" y="257.956" fill="#000" stroke="none" clip-path="url(#clipPath2)" font-family="sans-serif" xml:space="preserve">userProjects.push(sanitized(name))</text></g><g fill="url(#linearGradient2)" stroke="url(#linearGradient2)" stroke-linecap="butt" stroke-miterlimit="1.45" transform="matrix(1,0,0,1,39,97)"><path stroke="none" d="M292.3043 127.5607 L499.2803 127.5607 L499.2803 167.5607 L292.3043 167.5607 Z" clip-path="url(#clipPath2)"/><path fill="none" stroke="#000" d="M292.3043 127.5607 L499.2803 127.5607 L499.2803 167.5607 L292.3043 167.5607 Z" clip-path="url(#clipPath2)"/><text x="343.442" y="152.275" fill="#000" stroke="none" clip-path="url(#clipPath2)" font-family="sans-serif" xml:space="preserve">User.findAllProjects</text></g><g fill="url(#linearGradient3)" stroke="url(#linearGradient3)" stroke-linecap="butt" stroke-miterlimit="1.45" transform="matrix(1,0,0,1,39,97)"><path stroke="none" d="M319.7923 392.4423 L471.7923 392.4423 L471.7923 475.3923 L319.7923 475.3923 Z" clip-path="url(#clipPath2)"/><path fill="none" stroke="#000" d="M319.7923 392.4423 L471.7923 392.4423 L471.7923 475.3923 L319.7923 475.3923 Z" clip-path="url(#clipPath2)"/><text x="347.772" y="423.93" fill="#000" stroke="none" clip-path="url(#clipPath2)" font-family="sans-serif" xml:space="preserve">[JADE templating]</text><text x="351.115" y="438.631" fill="#000" stroke="none" clip-path="url(#clipPath2)" font-family="sans-serif" xml:space="preserve">Performs its own</text><text x="329.435" y="453.332" fill="#000" stroke="none" clip-path="url(#clipPath2)" font-family="sans-serif" xml:space="preserve">HTML Entity sanitization.</text></g><g fill="url(#linearGradient4)" stroke="url(#linearGradient4)" stroke-linecap="butt" stroke-miterlimit="1.45" transform="matrix(1,0,0,1,39,97)"><path stroke="none" d="M327.3091 212.4423 L464.2755 212.4423 L474.2755 222.4423 L474.2755 233.2423 L317.3091 233.2423 L317.3091 222.4423 Z" clip-path="url(#clipPath2)"/><path fill="none" stroke="#000" d="M327.3091 212.4423 L464.2755 212.4423 L474.2755 222.4423 L474.2755 233.2423 L317.3091 233.2423 L317.3091 222.4423 Z" clip-path="url(#clipPath2)"/><text x="333.575" y="227.556" fill="#000" stroke="none" clip-path="url(#clipPath2)" font-family="sans-serif" xml:space="preserve">for each &quot;doc&quot; in &quot;docs&quot;</text></g><g fill="url(#linearGradient5)" stroke="url(#linearGradient5)" stroke-linecap="butt" stroke-miterlimit="1.45" transform="matrix(1,0,0,1,39,97)"><path stroke="none" d="M317.3091 273.2423 L474.2755 273.2423 L474.2755 284.0423 L464.2755 294.0423 L327.3091 294.0423 L317.3091 284.0423 Z" clip-path="url(#clipPath2)"/><path fill="none" stroke="#000" d="M317.3091 273.2423 L474.2755 273.2423 L474.2755 284.0423 L464.2755 294.0423 L327.3091 294.0423 L317.3091 284.0423 Z" clip-path="url(#clipPath2)"/></g><g fill="url(#linearGradient6)" stroke="url(#linearGradient6)" stroke-linecap="butt" stroke-miterlimit="1.45" transform="matrix(1,0,0,1,39,97)"><path stroke="none" d="M292.3043 322.4423 L499.2803 322.4423 L499.2803 362.4423 L292.3043 362.4423 Z" clip-path="url(#clipPath2)"/><path fill="none" stroke="#000" d="M292.3043 322.4423 L499.2803 322.4423 L499.2803 362.4423 L292.3043 362.4423 Z" clip-path="url(#clipPath2)"/><text x="331.105" y="347.156" fill="#000" stroke="none" clip-path="url(#clipPath2)" font-family="sans-serif" xml:space="preserve">res.render(userProjects)</text></g><g fill="url(#linearGradient7)" stroke="url(#linearGradient7)" stroke-linecap="butt" stroke-miterlimit="1.45" transform="matrix(1,0,0,1,39,97)"><path stroke="none" d="M292.3043 20.3151 L499.2803 20.3151 L499.2803 60.3151 L292.3043 60.3151 Z" clip-path="url(#clipPath2)"/><path fill="none" stroke="#000" d="M292.3043 20.3151 L499.2803 20.3151 L499.2803 60.3151 L292.3043 60.3151 Z" clip-path="url(#clipPath2)"/><text x="328.462" y="45.029" fill="#000" stroke="none" clip-path="url(#clipPath2)" font-family="sans-serif" xml:space="preserve">app.js // get(&apos;/dashboard&apos;)</text></g><g stroke-linecap="butt" stroke-miterlimit="1.45"><path fill="none" d="M395.7923 167.5941 L395.7923 204.4563" clip-path="url(#clipPath2)" transform="matrix(1,0,0,1,39,97)"/><path stroke="none" d="M395.7923 212.4563 L400.7923 200.4563 L395.7923 203.4563 L390.7923 200.4563 Z" clip-path="url(#clipPath2)" transform="matrix(1,0,0,1,39,97)"/><text x="304.263" y="194.715" stroke="none" clip-path="url(#clipPath2)" font-family="sans-serif" transform="matrix(1,0,0,1,39,97)" xml:space="preserve">docs = all user projects</text><path fill="none" d="M395.7923 294.0644 L395.7923 314.458" clip-path="url(#clipPath2)" transform="matrix(1,0,0,1,39,97)"/><path stroke="none" d="M395.7923 322.458 L400.7923 310.458 L395.7923 313.458 L390.7923 310.458 Z" clip-path="url(#clipPath2)" transform="matrix(1,0,0,1,39,97)"/><path fill="none" d="M395.7923 362.4078 L395.7923 384.4711" clip-path="url(#clipPath2)" transform="matrix(1,0,0,1,39,97)"/><path stroke="none" d="M395.7923 392.4711 L400.7923 380.4711 L395.7923 383.4711 L390.7923 380.4711 Z" clip-path="url(#clipPath2)" transform="matrix(1,0,0,1,39,97)"/><path fill="none" d="M346.9962 60.3029 L317.7795 72.2705 L317.7795 113.5025 L342.6357 124.354" clip-path="url(#clipPath2)" transform="matrix(1,0,0,1,39,97)"/><path stroke="none" d="M349.9674 127.5548 L340.9703 118.1712 L341.7192 123.9539 L336.9692 127.3359 Z" clip-path="url(#clipPath2)" transform="matrix(1,0,0,1,39,97)"/></g><g fill="#F5F5F5" stroke="#F5F5F5" transform="matrix(1,0,0,1,39,97)"><rect width="236.976" height="586.956" x="-23.488" y="-81.564" stroke="none" clip-path="url(#clipPath2)" rx="4" ry="4"/><rect width="236.976" height="22.377" x="-23.488" y="-81.564" fill="#EBEBEB" stroke="none" clip-path="url(#clipPath2)"/></g><g stroke-linecap="butt" stroke-miterlimit="1.45" font-family="sans-serif" font-size="15" transform="matrix(1,0,0,1,39,97)"><text x="169.813" y="-64.483" stroke="none" clip-path="url(#clipPath2)" xml:space="preserve">USER</text><rect width="236.976" height="586.956" x="-23.488" y="-81.564" fill="none" stroke-dasharray="6 2" clip-path="url(#clipPath2)" rx="4" ry="4"/></g><g fill="url(#linearGradient8)" stroke="url(#linearGradient8)" stroke-linecap="butt" stroke-miterlimit="1.45" transform="matrix(1,0,0,1,39,97)"><path stroke="none" d="M-8.488 20.3151 L198.488 20.3151 L198.488 60.3151 L-8.488 60.3151 Z" clip-path="url(#clipPath2)"/><path fill="none" stroke="#000" d="M-8.488 20.3151 L198.488 20.3151 L198.488 60.3151 L-8.488 60.3151 Z" clip-path="url(#clipPath2)"/><text x="42.966" y="45.029" fill="#000" stroke="none" clip-path="url(#clipPath2)" font-family="sans-serif" xml:space="preserve">get dashboard URL</text></g><g fill="url(#linearGradient9)" stroke="url(#linearGradient9)" stroke-linecap="butt" stroke-miterlimit="1.45" transform="matrix(1,0,0,1,39,97)"><ellipse cx="95" cy="-24.187" stroke="none" clip-path="url(#clipPath2)" rx="49.007" ry="20"/><ellipse cx="95" cy="-24.187" fill="none" stroke="#000" clip-path="url(#clipPath2)" rx="49.007" ry="20"/><text x="51.972" y="-19.473" fill="#000" stroke="none" clip-path="url(#clipPath2)" font-family="sans-serif" xml:space="preserve">View dashboard</text></g><g fill="url(#linearGradient10)" stroke="url(#linearGradient10)" stroke-linecap="butt" stroke-miterlimit="1.45" transform="matrix(1,0,0,1,39,97)"><rect width="206.976" height="40" x="-8.488" y="413.917" stroke="none" clip-path="url(#clipPath2)" rx="20" ry="20"/><rect width="206.976" height="40" x="-8.488" y="413.917" fill="none" stroke="#000" clip-path="url(#clipPath2)" rx="20" ry="20"/><text x="50.633" y="438.631" fill="#000" stroke="none" clip-path="url(#clipPath2)" font-family="sans-serif" xml:space="preserve">Dashboard page</text></g><g stroke-linecap="butt" stroke-miterlimit="1.45"><path fill="none" d="M198.5075 40.3151 L284.2852 40.3151" clip-path="url(#clipPath2)" transform="matrix(1,0,0,1,39,97)"/><path stroke="none" d="M292.2852 40.3151 L280.2852 35.3151 L283.2852 40.3151 L280.2852 45.3151 Z" clip-path="url(#clipPath2)" transform="matrix(1,0,0,1,39,97)"/><path fill="none" d="M95 -4.1878 L95 12.2801" clip-path="url(#clipPath2)" transform="matrix(1,0,0,1,39,97)"/><path stroke="none" d="M95 20.2801 L100 8.2801 L95 11.2801 L90 8.2801 Z" clip-path="url(#clipPath2)" transform="matrix(1,0,0,1,39,97)"/><path fill="none" d="M319.8231 433.9173 L206.4922 433.9173" clip-path="url(#clipPath2)" transform="matrix(1,0,0,1,39,97)"/><path stroke="none" d="M198.4922 433.9173 L210.4922 438.9173 L207.4922 433.9173 L210.4922 428.9173 Z" clip-path="url(#clipPath2)" transform="matrix(1,0,0,1,39,97)"/></g></g></svg>