<svg xmlns="http://www.w3.org/2000/svg" xmlns:xlink="http://www.w3.org/1999/xlink" width="1010" height="1771" fill="#000" fill-opacity="1" stroke="#000" stroke-dasharray="none" stroke-dashoffset="0" stroke-linecap="square" stroke-linejoin="miter" stroke-miterlimit="10" stroke-opacity="1" stroke-width="1" color-interpolation="auto" color-rendering="auto" font-family="'Dialog'" font-size="12" font-style="normal" font-weight="normal" image-rendering="auto" shape-rendering="auto" text-rendering="auto"><g><defs id="defs1"><linearGradient id="linearGradient1" x1="589.067" x2="910.689" y1="657.49" y2="697.49" gradientUnits="userSpaceOnUse" spreadMethod="pad"><stop offset="0%" stop-color="#E8EEF7" stop-opacity="1"/><stop offset="100%" stop-color="#B7C9E3" stop-opacity="1"/></linearGradient><linearGradient id="linearGradient2" x1="589.067" x2="910.689" y1="727.49" y2="767.49" gradientUnits="userSpaceOnUse" spreadMethod="pad"><stop offset="0%" stop-color="#FC9" stop-opacity="1"/><stop offset="100%" stop-color="red" stop-opacity="1"/></linearGradient><linearGradient id="linearGradient3" x1="574.067" x2="741.458" y1="562.064" y2="602.064" gradientUnits="userSpaceOnUse" spreadMethod="pad"><stop offset="0%" stop-color="#E8EEF7" stop-opacity="1"/><stop offset="100%" stop-color="#B7C9E3" stop-opacity="1"/></linearGradient><linearGradient id="linearGradient4" x1="580.042" x2="901.664" y1="802.401" y2="842.401" gradientUnits="userSpaceOnUse" spreadMethod="pad"><stop offset="0%" stop-color="#E8EEF7" stop-opacity="1"/><stop offset="100%" stop-color="#B7C9E3" stop-opacity="1"/></linearGradient><linearGradient id="linearGradient5" x1="574.067" x2="741.458" y1="450.563" y2="490.563" gradientUnits="userSpaceOnUse" spreadMethod="pad"><stop offset="0%" stop-color="#E8EEF7" stop-opacity="1"/><stop offset="100%" stop-color="#B7C9E3" stop-opacity="1"/></linearGradient><linearGradient id="linearGradient6" x1="559.067" x2="726.458" y1="130.6" y2="234.592" gradientUnits="userSpaceOnUse" spreadMethod="pad"><stop offset="0%" stop-color="#E8EEF7" stop-opacity="1"/><stop offset="100%" stop-color="#B7C9E3" stop-opacity="1"/></linearGradient><linearGradient id="linearGradient7" x1="-8.488" x2="198.488" y1="66.607" y2="106.607" gradientUnits="userSpaceOnUse" spreadMethod="pad"><stop offset="0%" stop-color="#E8EEF7" stop-opacity="1"/><stop offset="100%" stop-color="#B7C9E3" stop-opacity="1"/></linearGradient><linearGradient id="linearGradient8" x1="-8.488" x2="198.488" y1="130.6" y2="170.6" gradientUnits="userSpaceOnUse" spreadMethod="pad"><stop offset="0%" stop-color="#E8EEF7" stop-opacity="1"/><stop offset="100%" stop-color="#B7C9E3" stop-opacity="1"/></linearGradient><linearGradient id="linearGradient9" x1="-8.488" x2="198.488" y1="194.592" y2="234.592" gradientUnits="userSpaceOnUse" spreadMethod="pad"><stop offset="0%" stop-color="#E8EEF7" stop-opacity="1"/><stop offset="100%" stop-color="#B7C9E3" stop-opacity="1"/></linearGradient><linearGradient id="linearGradient10" x1="-8.488" x2="198.488" y1="875.593" y2="915.593" gradientUnits="userSpaceOnUse" spreadMethod="pad"><stop offset="0%" stop-color="#E8EEF7" stop-opacity="1"/><stop offset="100%" stop-color="#B7C9E3" stop-opacity="1"/></linearGradient><linearGradient id="linearGradient11" x1="55" x2="135" y1="-7.791" y2="32.209" gradientUnits="userSpaceOnUse" spreadMethod="pad"><stop offset="0%" stop-color="#E8EEF7" stop-opacity="1"/><stop offset="100%" stop-color="#B7C9E3" stop-opacity="1"/></linearGradient><linearGradient id="linearGradient12" x1="-8.488" x2="198.488" y1="258.585" y2="298.585" gradientUnits="userSpaceOnUse" spreadMethod="pad"><stop offset="0%" stop-color="#E8EEF7" stop-opacity="1"/><stop offset="100%" stop-color="#B7C9E3" stop-opacity="1"/></linearGradient><linearGradient id="linearGradient13" x1="-8.488" x2="198.488" y1="322.578" y2="362.578" gradientUnits="userSpaceOnUse" spreadMethod="pad"><stop offset="0%" stop-color="#E8EEF7" stop-opacity="1"/><stop offset="100%" stop-color="#B7C9E3" stop-opacity="1"/></linearGradient><linearGradient id="linearGradient14" x1="-8.488" x2="198.488" y1="450.563" y2="490.563" gradientUnits="userSpaceOnUse" spreadMethod="pad"><stop offset="0%" stop-color="#E8EEF7" stop-opacity="1"/><stop offset="100%" stop-color="#B7C9E3" stop-opacity="1"/></linearGradient><linearGradient id="linearGradient15" x1="-8.488" x2="198.488" y1="386.571" y2="426.571" gradientUnits="userSpaceOnUse" spreadMethod="pad"><stop offset="0%" stop-color="#E8EEF7" stop-opacity="1"/><stop offset="100%" stop-color="#B7C9E3" stop-opacity="1"/></linearGradient><linearGradient id="linearGradient16" x1="-8.488" x2="198.488" y1="945.593" y2="985.593" gradientUnits="userSpaceOnUse" spreadMethod="pad"><stop offset="0%" stop-color="#E8EEF7" stop-opacity="1"/><stop offset="100%" stop-color="#B7C9E3" stop-opacity="1"/></linearGradient><linearGradient id="linearGradient17" x1="-8.488" x2="198.488" y1="1015.593" y2="1074.993" gradientUnits="userSpaceOnUse" spreadMethod="pad"><stop offset="0%" stop-color="#E8EEF7" stop-opacity="1"/><stop offset="100%" stop-color="#B7C9E3" stop-opacity="1"/></linearGradient><linearGradient id="linearGradient18" x1="140.937" x2="343.158" y1="1104.993" y2="1137.233" gradientUnits="userSpaceOnUse" spreadMethod="pad"><stop offset="0%" stop-color="#FC9" stop-opacity="1"/><stop offset="100%" stop-color="red" stop-opacity="1"/></linearGradient><linearGradient id="linearGradient19" x1="140.937" x2="343.158" y1="1228.13" y2="1244.85" gradientUnits="userSpaceOnUse" spreadMethod="pad"><stop offset="0%" stop-color="#E8EEF7" stop-opacity="1"/><stop offset="100%" stop-color="#B7C9E3" stop-opacity="1"/></linearGradient><linearGradient id="linearGradient20" x1="-8.488" x2="198.488" y1="1540.733" y2="1580.733" gradientUnits="userSpaceOnUse" spreadMethod="pad"><stop offset="0%" stop-color="#E8EEF7" stop-opacity="1"/><stop offset="100%" stop-color="#B7C9E3" stop-opacity="1"/></linearGradient><linearGradient id="linearGradient21" x1="140.937" x2="343.158" y1="1464.327" y2="1481.047" gradientUnits="userSpaceOnUse" spreadMethod="pad"><stop offset="0%" stop-color="#E8EEF7" stop-opacity="1"/><stop offset="100%" stop-color="#B7C9E3" stop-opacity="1"/></linearGradient><linearGradient id="linearGradient22" x1="-8.488" x2="198.488" y1="1629.574" y2="1669.574" gradientUnits="userSpaceOnUse" spreadMethod="pad"><stop offset="0%" stop-color="#E8EEF7" stop-opacity="1"/><stop offset="100%" stop-color="#B7C9E3" stop-opacity="1"/></linearGradient><linearGradient id="linearGradient23" x1="140.937" x2="343.158" y1="1167.233" y2="1191.713" gradientUnits="userSpaceOnUse" spreadMethod="pad"><stop offset="0%" stop-color="#E8EEF7" stop-opacity="1"/><stop offset="100%" stop-color="#B7C9E3" stop-opacity="1"/></linearGradient><linearGradient id="linearGradient24" x1="140.937" x2="343.158" y1="1269.33" y2="1293.81" gradientUnits="userSpaceOnUse" spreadMethod="pad"><stop offset="0%" stop-color="#E8EEF7" stop-opacity="1"/><stop offset="100%" stop-color="#B7C9E3" stop-opacity="1"/></linearGradient><linearGradient id="linearGradient25" x1="140.937" x2="343.158" y1="1244.85" y2="1269.33" gradientUnits="userSpaceOnUse" spreadMethod="pad"><stop offset="0%" stop-color="#E8EEF7" stop-opacity="1"/><stop offset="100%" stop-color="#B7C9E3" stop-opacity="1"/></linearGradient><linearGradient id="linearGradient26" x1="287.436" x2="489.657" y1="1393.127" y2="1417.607" gradientUnits="userSpaceOnUse" spreadMethod="pad"><stop offset="0%" stop-color="#FC9" stop-opacity="1"/><stop offset="100%" stop-color="red" stop-opacity="1"/></linearGradient><linearGradient id="linearGradient27" x1="287.436" x2="489.657" y1="1368.647" y2="1393.127" gradientUnits="userSpaceOnUse" spreadMethod="pad"><stop offset="0%" stop-color="#E8EEF7" stop-opacity="1"/><stop offset="100%" stop-color="#B7C9E3" stop-opacity="1"/></linearGradient><linearGradient id="linearGradient28" x1="287.436" x2="489.657" y1="1344.167" y2="1368.647" gradientUnits="userSpaceOnUse" spreadMethod="pad"><stop offset="0%" stop-color="#E8EEF7" stop-opacity="1"/><stop offset="100%" stop-color="#B7C9E3" stop-opacity="1"/></linearGradient><linearGradient id="linearGradient29" x1="287.436" x2="489.657" y1="1327.447" y2="1344.167" gradientUnits="userSpaceOnUse" spreadMethod="pad"><stop offset="0%" stop-color="#E8EEF7" stop-opacity="1"/><stop offset="100%" stop-color="#B7C9E3" stop-opacity="1"/></linearGradient><linearGradient id="linearGradient30" x1="287.436" x2="489.657" y1="1417.607" y2="1434.327" gradientUnits="userSpaceOnUse" spreadMethod="pad"><stop offset="0%" stop-color="#E8EEF7" stop-opacity="1"/><stop offset="100%" stop-color="#B7C9E3" stop-opacity="1"/></linearGradient><clipPath id="clipPath1" clipPathUnits="userSpaceOnUse"><path d="M0 0 L1010 0 L1010 1771 L0 1771 L0 0 Z"/></clipPath><clipPath id="clipPath2" clipPathUnits="userSpaceOnUse"><path d="M-54 -71 L956 -71 L956 1700 L-54 1700 L-54 -71 Z"/></clipPath></defs><g fill="#fff" stroke="#fff" transform="translate(54,71)"><rect width="1010" height="1771" x="-54" y="-71" stroke="none" clip-path="url(#clipPath2)"/></g><g fill="#F5F5F5" stroke="#F5F5F5" transform="matrix(1,0,0,1,54,71)"><rect width="413.112" height="978.1" x="527.577" y="-55.794" stroke="none" clip-path="url(#clipPath2)" rx="4" ry="4"/><rect width="413.112" height="22.377" x="527.577" y="-55.794" fill="#EBEBEB" stroke="none" clip-path="url(#clipPath2)"/></g><g stroke-linecap="butt" stroke-miterlimit="1.45" font-family="sans-serif" font-size="15" transform="matrix(1,0,0,1,54,71)"><text x="852.014" y="-38.713" stroke="none" clip-path="url(#clipPath2)" xml:space="preserve">CORNFIELD</text><rect width="413.112" height="978.1" x="527.577" y="-55.794" fill="none" stroke-dasharray="6 2" clip-path="url(#clipPath2)" rx="4" ry="4"/></g><g fill="#E1E1E1" stroke="#E1E1E1" transform="matrix(1,0,0,1,54,71)"><rect width="383.112" height="386.743" x="542.577" y="520.563" stroke="none" clip-path="url(#clipPath2)" rx="4" ry="4"/><rect width="383.112" height="22.377" x="542.577" y="520.563" fill="#EBEBEB" stroke="none" clip-path="url(#clipPath2)"/></g><g stroke-linecap="butt" stroke-miterlimit="1.45" font-family="sans-serif" font-size="15" transform="matrix(1,0,0,1,54,71)"><text x="771.96" y="537.644" stroke="none" clip-path="url(#clipPath2)" xml:space="preserve">Remix route in index.js</text><rect width="383.112" height="386.743" x="542.577" y="520.563" fill="none" stroke-dasharray="6 2" clip-path="url(#clipPath2)" rx="4" ry="4"/></g><g fill="url(#linearGradient1)" stroke="url(#linearGradient1)" stroke-linecap="butt" stroke-miterlimit="1.45" transform="matrix(1,0,0,1,54,71)"><path stroke="none" d="M599.2671 657.4896 L910.6888 657.4896 L900.4888 697.4896 L589.0671 697.4896 Z" clip-path="url(#clipPath2)"/><path fill="none" stroke="#000" d="M599.2671 657.4896 L910.6888 657.4896 L900.4888 697.4896 L589.0671 697.4896 Z" clip-path="url(#clipPath2)"/><text x="658.015" y="682.203" fill="#000" stroke="none" clip-path="url(#clipPath2)" font-family="sans-serif" xml:space="preserve">project = stringified JSON from DB</text></g><g fill="url(#linearGradient2)" stroke="url(#linearGradient2)" stroke-linecap="butt" stroke-miterlimit="1.45" transform="matrix(1,0,0,1,54,71)"><path stroke="none" d="M599.2671 727.4896 L910.6888 727.4896 L900.4888 767.4896 L589.0671 767.4896 Z" clip-path="url(#clipPath2)"/><path fill="none" stroke="#000" d="M599.2671 727.4896 L910.6888 727.4896 L900.4888 767.4896 L589.0671 767.4896 Z" clip-path="url(#clipPath2)"/><text x="612.994" y="752.203" fill="#000" stroke="none" clip-path="url(#clipPath2)" font-family="sans-serif" xml:space="preserve">projectJSON = sanitizedHTMLinJSON(project.data)</text></g><g fill="url(#linearGradient3)" stroke="url(#linearGradient3)" stroke-linecap="butt" stroke-miterlimit="1.45" transform="matrix(1,0,0,1,54,71)"><path stroke="none" d="M574.0671 562.0636 L741.4582 562.0636 L741.4582 602.0636 L574.0671 602.0636 Z" clip-path="url(#clipPath2)"/><path fill="none" stroke="#000" d="M574.0671 562.0636 L741.4582 562.0636 L741.4582 602.0636 L574.0671 602.0636 Z" clip-path="url(#clipPath2)"/><text x="621.748" y="579.427" fill="#000" stroke="none" clip-path="url(#clipPath2)" font-family="sans-serif" xml:space="preserve">User.findById</text><text x="586.395" y="594.128" fill="#000" stroke="none" clip-path="url(#clipPath2)" font-family="sans-serif" xml:space="preserve">(finds a project, not a user)</text></g><g fill="url(#linearGradient4)" stroke="url(#linearGradient4)" stroke-linecap="butt" stroke-miterlimit="1.45" transform="matrix(1,0,0,1,54,71)"><path stroke="none" d="M590.2422 802.4009 L901.664 802.4009 L891.464 842.4009 L580.0422 842.4009 Z" clip-path="url(#clipPath2)"/><path fill="none" stroke="#000" d="M590.2422 802.4009 L901.664 802.4009 L891.464 842.4009 L580.0422 842.4009 Z" clip-path="url(#clipPath2)"/><text x="643.479" y="827.115" fill="#000" stroke="none" clip-path="url(#clipPath2)" font-family="sans-serif" xml:space="preserve">(further administrative value parsing)</text></g><g fill="url(#linearGradient5)" stroke="url(#linearGradient5)" stroke-linecap="butt" stroke-miterlimit="1.45" transform="matrix(1,0,0,1,54,71)"><path stroke="none" d="M574.0671 450.5635 L741.4582 450.5635 L741.4582 490.5635 L574.0671 490.5635 Z" clip-path="url(#clipPath2)"/><path fill="none" stroke="#000" d="M574.0671 450.5635 L741.4582 450.5635 L741.4582 490.5635 L574.0671 490.5635 Z" clip-path="url(#clipPath2)"/><text x="580.105" y="475.277" fill="#000" stroke="none" clip-path="url(#clipPath2)" font-family="sans-serif" xml:space="preserve">index.js // app.get(&apos;api/remix&apos;)</text></g><g fill="url(#linearGradient6)" stroke="url(#linearGradient6)" stroke-linecap="butt" stroke-miterlimit="1.45" transform="matrix(1,0,0,1,54,71)"><path stroke="none" d="M559.0671 130.5995 L726.4582 130.5995 L726.4582 234.5923 L559.0671 234.5923 Z" clip-path="url(#clipPath2)"/><path fill="none" stroke="#000" d="M559.0671 130.5995 L726.4582 130.5995 L726.4582 234.5923 L559.0671 234.5923 Z" clip-path="url(#clipPath2)"/><text x="570.396" y="187.31" fill="#000" stroke="none" clip-path="url(#clipPath2)" font-family="sans-serif" xml:space="preserve">/templates/basic/index.html</text></g><g stroke-linecap="butt" stroke-miterlimit="1.45"><path fill="none" d="M589.8234 694.4062 L554.8219 698.1056 L554.8219 747.4896 L586.2045 747.4896" clip-path="url(#clipPath2)" transform="matrix(1,0,0,1,54,71)"/><path stroke="none" d="M594.2045 747.4896 L582.2045 742.4896 L585.2045 747.4896 L582.2045 752.4896 Z" clip-path="url(#clipPath2)" transform="matrix(1,0,0,1,54,71)"/><path fill="none" d="M657.7626 602.0534 L657.7626 624.0956 L708.4359 653.468" clip-path="url(#clipPath2)" transform="matrix(1,0,0,1,54,71)"/><path stroke="none" d="M715.3572 657.4799 L707.4826 647.1362 L707.5707 652.9665 L702.4678 655.7878 Z" clip-path="url(#clipPath2)" transform="matrix(1,0,0,1,54,71)"/><text x="588.619" y="649.479" stroke="none" clip-path="url(#clipPath2)" font-family="sans-serif" transform="matrix(1,0,0,1,54,71)" xml:space="preserve">if find succeeded</text><path fill="none" d="M589.2014 767.0766 L554.5289 771.3033 L554.5289 815.3698 L578.6046 816.2783" clip-path="url(#clipPath2)" transform="matrix(1,0,0,1,54,71)"/><path stroke="none" d="M586.5989 816.58 L574.796 811.131 L577.6053 816.2406 L574.4188 821.1239 Z" clip-path="url(#clipPath2)" transform="matrix(1,0,0,1,54,71)"/><path fill="none" d="M657.7626 490.5715 L657.7626 554.0944" clip-path="url(#clipPath2)" transform="matrix(1,0,0,1,54,71)"/><path stroke="none" d="M657.7626 562.0944 L662.7626 550.0944 L657.7626 553.0944 L652.7626 550.0944 Z" clip-path="url(#clipPath2)" transform="matrix(1,0,0,1,54,71)"/></g><g fill="#F5F5F5" stroke="#F5F5F5" transform="matrix(1,0,0,1,54,71)"><rect width="551.065" height="1740.367" x="-38.488" y="-55.794" stroke="none" clip-path="url(#clipPath2)" rx="4" ry="4"/><rect width="551.065" height="22.377" x="-38.488" y="-55.794" fill="#EBEBEB" stroke="none" clip-path="url(#clipPath2)"/></g><g stroke-linecap="butt" stroke-miterlimit="1.45" font-family="sans-serif" font-size="15" transform="matrix(1,0,0,1,54,71)"><text x="468.902" y="-38.713" stroke="none" clip-path="url(#clipPath2)" xml:space="preserve">USER</text><rect width="551.065" height="1740.367" x="-38.488" y="-55.794" fill="none" stroke-dasharray="6 2" clip-path="url(#clipPath2)" rx="4" ry="4"/></g><g fill="url(#linearGradient7)" stroke="url(#linearGradient7)" stroke-linecap="butt" stroke-miterlimit="1.45" transform="matrix(1,0,0,1,54,71)"><path stroke="none" d="M-8.488 66.6067 L198.488 66.6067 L198.488 106.6067 L-8.488 106.6067 Z" clip-path="url(#clipPath2)"/><path fill="none" stroke="#000" d="M-8.488 66.6067 L198.488 66.6067 L198.488 106.6067 L-8.488 106.6067 Z" clip-path="url(#clipPath2)"/><text x="22.66" y="91.321" fill="#000" stroke="none" clip-path="url(#clipPath2)" font-family="sans-serif" xml:space="preserve">src/embed.js // remixClick()</text></g><g fill="url(#linearGradient8)" stroke="url(#linearGradient8)" stroke-linecap="butt" stroke-miterlimit="1.45" transform="matrix(1,0,0,1,54,71)"><path stroke="none" d="M-8.488 130.5995 L198.488 130.5995 L198.488 170.5995 L-8.488 170.5995 Z" clip-path="url(#clipPath2)"/><path fill="none" stroke="#000" d="M-8.488 130.5995 L198.488 130.5995 L198.488 170.5995 L-8.488 170.5995 Z" clip-path="url(#clipPath2)"/><text x="20.976" y="155.313" fill="#000" stroke="none" clip-path="url(#clipPath2)" font-family="sans-serif" xml:space="preserve">window.open( [remix URL] )</text></g><g fill="url(#linearGradient9)" stroke="url(#linearGradient9)" stroke-linecap="butt" stroke-miterlimit="1.45" transform="matrix(1,0,0,1,54,71)"><path stroke="none" d="M-8.488 194.5923 L198.488 194.5923 L198.488 234.5923 L-8.488 234.5923 Z" clip-path="url(#clipPath2)"/><path fill="none" stroke="#000" d="M-8.488 194.5923 L198.488 194.5923 L198.488 234.5923 L-8.488 234.5923 Z" clip-path="url(#clipPath2)"/><text x="42.632" y="219.306" fill="#000" stroke="none" clip-path="url(#clipPath2)" font-family="sans-serif" xml:space="preserve">page loads butter.js</text></g><g fill="url(#linearGradient10)" stroke="url(#linearGradient10)" stroke-linecap="butt" stroke-miterlimit="1.45" transform="matrix(1,0,0,1,54,71)"><path stroke="none" d="M-8.488 875.5929 L198.488 875.5929 L198.488 915.5929 L-8.488 915.5929 Z" clip-path="url(#clipPath2)"/><path fill="none" stroke="#000" d="M-8.488 875.5929 L198.488 875.5929 L198.488 915.5929 L-8.488 915.5929 Z" clip-path="url(#clipPath2)"/><text x="21.301" y="900.307" fill="#000" stroke="none" clip-path="url(#clipPath2)" font-family="sans-serif" xml:space="preserve">build page from JSON reply</text></g><g fill="url(#linearGradient11)" stroke="url(#linearGradient11)" stroke-linecap="butt" stroke-miterlimit="1.45" transform="matrix(1,0,0,1,54,71)"><ellipse cx="95" cy="12.209" stroke="none" clip-path="url(#clipPath2)" rx="40" ry="20"/><ellipse cx="95" cy="12.209" fill="none" stroke="#000" clip-path="url(#clipPath2)" rx="40" ry="20"/><text x="63.33" y="16.923" fill="#000" stroke="none" clip-path="url(#clipPath2)" font-family="sans-serif" xml:space="preserve">Press remix</text></g><g fill="url(#linearGradient12)" stroke="url(#linearGradient12)" stroke-linecap="butt" stroke-miterlimit="1.45" transform="matrix(1,0,0,1,54,71)"><path stroke="none" d="M-8.488 258.5851 L198.488 258.5851 L198.488 298.5851 L-8.488 298.5851 Z" clip-path="url(#clipPath2)"/><path fill="none" stroke="#000" d="M-8.488 258.5851 L198.488 258.5851 L198.488 298.5851 L-8.488 298.5851 Z" clip-path="url(#clipPath2)"/><text x="39.969" y="283.299" fill="#000" stroke="none" clip-path="url(#clipPath2)" font-family="sans-serif" xml:space="preserve">butter loads config.js</text></g><g fill="url(#linearGradient13)" stroke="url(#linearGradient13)" stroke-linecap="butt" stroke-miterlimit="1.45" transform="matrix(1,0,0,1,54,71)"><path stroke="none" d="M-8.488 322.5779 L198.488 322.5779 L198.488 362.5779 L-8.488 362.5779 Z" clip-path="url(#clipPath2)"/><path fill="none" stroke="#000" d="M-8.488 322.5779 L198.488 322.5779 L198.488 362.5779 L-8.488 362.5779 Z" clip-path="url(#clipPath2)"/><text x="36.307" y="347.292" fill="#000" stroke="none" clip-path="url(#clipPath2)" font-family="sans-serif" xml:space="preserve">config.js loads main.js</text></g><g fill="url(#linearGradient14)" stroke="url(#linearGradient14)" stroke-linecap="butt" stroke-miterlimit="1.45" transform="matrix(1,0,0,1,54,71)"><path stroke="none" d="M-8.488 450.5635 L198.488 450.5635 L198.488 490.5635 L-8.488 490.5635 Z" clip-path="url(#clipPath2)"/><path fill="none" stroke="#000" d="M-8.488 450.5635 L198.488 450.5635 L198.488 490.5635 L-8.488 490.5635 Z" clip-path="url(#clipPath2)"/><text x="7.294" y="475.277" fill="#000" stroke="none" clip-path="url(#clipPath2)" font-family="sans-serif" xml:space="preserve">main.js // loadForSavedDataURL</text></g><g fill="url(#linearGradient15)" stroke="url(#linearGradient15)" stroke-linecap="butt" stroke-miterlimit="1.45" transform="matrix(1,0,0,1,54,71)"><path stroke="none" d="M-8.488 386.5707 L198.488 386.5707 L198.488 426.5707 L-8.488 426.5707 Z" clip-path="url(#clipPath2)"/><path fill="none" stroke="#000" d="M-8.488 386.5707 L198.488 386.5707 L198.488 426.5707 L-8.488 426.5707 Z" clip-path="url(#clipPath2)"/><text x="23.296" y="411.285" fill="#000" stroke="none" clip-path="url(#clipPath2)" font-family="sans-serif" xml:space="preserve">main.js // attemptDataLoad</text></g><g fill="url(#linearGradient16)" stroke="url(#linearGradient16)" stroke-linecap="butt" stroke-miterlimit="1.45" transform="matrix(1,0,0,1,54,71)"><path stroke="none" d="M-8.488 945.5929 L198.488 945.5929 L198.488 985.5929 L-8.488 985.5929 Z" clip-path="url(#clipPath2)"/><path fill="none" stroke="#000" d="M-8.488 945.5929 L198.488 945.5929 L198.488 985.5929 L-8.488 985.5929 Z" clip-path="url(#clipPath2)"/><text x="45.649" y="970.307" fill="#000" stroke="none" clip-path="url(#clipPath2)" font-family="sans-serif" xml:space="preserve">main.js // doImport</text></g><g fill="url(#linearGradient17)" stroke="url(#linearGradient17)" stroke-linecap="butt" stroke-miterlimit="1.45" transform="matrix(1,0,0,1,54,71)"><path stroke="none" d="M-8.488 1015.5929 L198.488 1015.5929 L198.488 1074.9929 L-8.488 1074.9929 Z" clip-path="url(#clipPath2)"/><path fill="none" stroke="#000" d="M-8.488 1015.5929 L198.488 1015.5929 L198.488 1074.9929 L-8.488 1074.9929 Z" clip-path="url(#clipPath2)"/><text x="54.658" y="1035.306" fill="#000" stroke="none" clip-path="url(#clipPath2)" font-family="sans-serif" xml:space="preserve">project.import()</text><text x="87.5" y="1050.007" fill="#000" stroke="none" clip-path="url(#clipPath2)" font-family="sans-serif" xml:space="preserve">--&gt;</text><text x="33.313" y="1064.708" fill="#000" stroke="none" clip-path="url(#clipPath2)" font-family="sans-serif" xml:space="preserve">project.js // _this.import</text></g><g fill="url(#linearGradient18)" stroke="url(#linearGradient18)" stroke-linecap="butt" stroke-miterlimit="1.45" transform="matrix(1,0,0,1,54,71)"><path stroke="none" d="M140.937 1104.9929 L343.1581 1104.9929 L343.1581 1137.2329 L140.937 1137.2329 Z" clip-path="url(#clipPath2)"/><path fill="none" stroke="#000" d="M140.937 1104.9929 L343.1581 1104.9929 L343.1581 1137.2329 L140.937 1137.2329 Z" clip-path="url(#clipPath2)"/><text x="147.665" y="1125.827" fill="#000" stroke="none" clip-path="url(#clipPath2)" font-family="sans-serif" xml:space="preserve">reconstitute sanitized project name</text></g><g fill="url(#linearGradient19)" stroke="url(#linearGradient19)" stroke-linecap="butt" stroke-miterlimit="1.45" transform="matrix(1,0,0,1,54,71)"><path stroke="none" d="M149.297 1228.1298 L334.7981 1228.1298 L343.1581 1236.4897 L343.1581 1244.8499 L140.937 1244.8499 L140.937 1236.4897 Z" clip-path="url(#clipPath2)"/><path fill="none" stroke="#000" d="M149.297 1228.1298 L334.7981 1228.1298 L343.1581 1236.4897 L343.1581 1244.8499 L140.937 1244.8499 L140.937 1236.4897 Z" clip-path="url(#clipPath2)"/><text x="187.69" y="1241.204" fill="#000" stroke="none" clip-path="url(#clipPath2)" font-family="sans-serif" xml:space="preserve">for each media track</text></g><g fill="url(#linearGradient20)" stroke="url(#linearGradient20)" stroke-linecap="butt" stroke-miterlimit="1.45" transform="matrix(1,0,0,1,54,71)"><path stroke="none" d="M-8.488 1540.7325 L198.488 1540.7325 L198.488 1580.7325 L-8.488 1580.7325 Z" clip-path="url(#clipPath2)"/><path fill="none" stroke="#000" d="M-8.488 1540.7325 L198.488 1540.7325 L198.488 1580.7325 L-8.488 1580.7325 Z" clip-path="url(#clipPath2)"/><text x="62.656" y="1565.446" fill="#000" stroke="none" clip-path="url(#clipPath2)" font-family="sans-serif" xml:space="preserve">useProject()</text></g><g fill="url(#linearGradient21)" stroke="url(#linearGradient21)" stroke-linecap="butt" stroke-miterlimit="1.45" transform="matrix(1,0,0,1,54,71)"><path stroke="none" d="M140.937 1464.3269 L343.1581 1464.3269 L343.1581 1472.6869 L334.7981 1481.0469 L149.297 1481.0469 L140.937 1472.6869 Z" clip-path="url(#clipPath2)"/><path fill="none" stroke="#000" d="M140.937 1464.3269 L343.1581 1464.3269 L343.1581 1472.6869 L334.7981 1481.0469 L149.297 1481.0469 L140.937 1472.6869 Z" clip-path="url(#clipPath2)"/></g><g fill="url(#linearGradient22)" stroke="url(#linearGradient22)" stroke-linecap="butt" stroke-miterlimit="1.45" transform="matrix(1,0,0,1,54,71)"><path stroke="none" d="M-8.488 1629.5736 L198.488 1629.5736 L198.488 1669.5736 L-8.488 1669.5736 Z" clip-path="url(#clipPath2)"/><path fill="none" stroke="#000" d="M-8.488 1629.5736 L198.488 1629.5736 L198.488 1669.5736 L-8.488 1669.5736 Z" clip-path="url(#clipPath2)"/><text x="14.038" y="1646.937" fill="#000" stroke="none" clip-path="url(#clipPath2)" font-family="sans-serif" xml:space="preserve">_this.dispatch( &quot;ready&quot;, _this );</text><text x="25.637" y="1661.638" fill="#000" stroke="none" clip-path="url(#clipPath2)" font-family="sans-serif" xml:space="preserve">(_this is a Butter instance)</text></g><g fill="url(#linearGradient23)" stroke="url(#linearGradient23)" stroke-linecap="butt" stroke-miterlimit="1.45" transform="matrix(1,0,0,1,54,71)"><path stroke="none" d="M140.937 1167.2329 L343.1581 1167.2329 L343.1581 1191.7129 L140.937 1191.7129 Z" clip-path="url(#clipPath2)"/><path fill="none" stroke="#000" d="M140.937 1167.2329 L343.1581 1167.2329 L343.1581 1191.7129 L140.937 1191.7129 Z" clip-path="url(#clipPath2)"/><text x="203.024" y="1184.187" fill="#000" stroke="none" clip-path="url(#clipPath2)" font-family="sans-serif" xml:space="preserve">target injection</text></g><g fill="url(#linearGradient24)" stroke="url(#linearGradient24)" stroke-linecap="butt" stroke-miterlimit="1.45" transform="matrix(1,0,0,1,54,71)"><path stroke="none" d="M140.937 1269.3298 L343.1581 1269.3298 L343.1581 1293.8098 L140.937 1293.8098 Z" clip-path="url(#clipPath2)"/><path fill="none" stroke="#000" d="M140.937 1269.3298 L343.1581 1269.3298 L343.1581 1293.8098 L140.937 1293.8098 Z" clip-path="url(#clipPath2)"/><text x="177.178" y="1286.284" fill="#000" stroke="none" clip-path="url(#clipPath2)" font-family="sans-serif" xml:space="preserve">media.json = mediaData</text></g><g fill="url(#linearGradient25)" stroke="url(#linearGradient25)" stroke-linecap="butt" stroke-miterlimit="1.45" transform="matrix(1,0,0,1,54,71)"><path stroke="none" d="M140.937 1244.8499 L343.1581 1244.8499 L343.1581 1269.3298 L140.937 1269.3298 Z" clip-path="url(#clipPath2)"/><path fill="none" stroke="#000" d="M140.937 1244.8499 L343.1581 1244.8499 L343.1581 1269.3298 L140.937 1269.3298 Z" clip-path="url(#clipPath2)"/><text x="178.359" y="1261.804" fill="#000" stroke="none" clip-path="url(#clipPath2)" font-family="sans-serif" xml:space="preserve">project.js // new Media()</text></g><g fill="url(#linearGradient26)" stroke="url(#linearGradient26)" stroke-linecap="butt" stroke-miterlimit="1.45" transform="matrix(1,0,0,1,54,71)"><path stroke="none" d="M287.4362 1393.127 L489.6573 1393.127 L489.6573 1417.6069 L287.4362 1417.6069 Z" clip-path="url(#clipPath2)"/><path fill="none" stroke="#000" d="M287.4362 1393.127 L489.6573 1393.127 L489.6573 1417.6069 L287.4362 1417.6069 Z" clip-path="url(#clipPath2)"/><text x="305.185" y="1410.081" fill="#000" stroke="none" clip-path="url(#clipPath2)" font-family="sans-serif" xml:space="preserve">this.sanitizeTrackEventData(...)</text></g><g fill="url(#linearGradient27)" stroke="url(#linearGradient27)" stroke-linecap="butt" stroke-miterlimit="1.45" transform="matrix(1,0,0,1,54,71)"><path stroke="none" d="M287.4362 1368.647 L489.6573 1368.647 L489.6573 1393.127 L287.4362 1393.127 Z" clip-path="url(#clipPath2)"/><path fill="none" stroke="#000" d="M287.4362 1368.647 L489.6573 1368.647 L489.6573 1393.127 L287.4362 1393.127 Z" clip-path="url(#clipPath2)"/><text x="311.522" y="1385.601" fill="#000" stroke="none" clip-path="url(#clipPath2)" font-family="sans-serif" xml:space="preserve">newTrack.addTrackEvent(...)</text></g><g fill="url(#linearGradient28)" stroke="url(#linearGradient28)" stroke-linecap="butt" stroke-miterlimit="1.45" transform="matrix(1,0,0,1,54,71)"><path stroke="none" d="M287.4362 1344.1669 L489.6573 1344.1669 L489.6573 1368.647 L287.4362 1368.647 Z" clip-path="url(#clipPath2)"/><path fill="none" stroke="#000" d="M287.4362 1344.1669 L489.6573 1344.1669 L489.6573 1368.647 L287.4362 1368.647 Z" clip-path="url(#clipPath2)"/><text x="324.032" y="1361.121" fill="#000" stroke="none" clip-path="url(#clipPath2)" font-family="sans-serif" xml:space="preserve">newTrack = new Track()</text></g><g fill="url(#linearGradient29)" stroke="url(#linearGradient29)" stroke-linecap="butt" stroke-miterlimit="1.45" transform="matrix(1,0,0,1,54,71)"><path stroke="none" d="M295.7962 1327.4469 L481.2972 1327.4469 L489.6573 1335.8069 L489.6573 1344.1669 L287.4362 1344.1669 L287.4362 1335.8069 Z" clip-path="url(#clipPath2)"/><path fill="none" stroke="#000" d="M295.7962 1327.4469 L481.2972 1327.4469 L489.6573 1335.8069 L489.6573 1344.1669 L287.4362 1344.1669 L287.4362 1335.8069 Z" clip-path="url(#clipPath2)"/><text x="335.853" y="1340.521" fill="#000" stroke="none" clip-path="url(#clipPath2)" font-family="sans-serif" xml:space="preserve">for each track event</text></g><g fill="url(#linearGradient30)" stroke="url(#linearGradient30)" stroke-linecap="butt" stroke-miterlimit="1.45" transform="matrix(1,0,0,1,54,71)"><path stroke="none" d="M287.4362 1417.6069 L489.6573 1417.6069 L489.6573 1425.9669 L481.2972 1434.3269 L295.7962 1434.3269 L287.4362 1425.9669 Z" clip-path="url(#clipPath2)"/><path fill="none" stroke="#000" d="M287.4362 1417.6069 L489.6573 1417.6069 L489.6573 1425.9669 L481.2972 1434.3269 L295.7962 1434.3269 L287.4362 1425.9669 Z" clip-path="url(#clipPath2)"/></g><g stroke-linecap="butt" stroke-miterlimit="1.45"><path fill="none" d="M95 106.6357 L95 122.6355" clip-path="url(#clipPath2)" transform="matrix(1,0,0,1,54,71)"/><path stroke="none" d="M95 130.6355 L100 118.6355 L95 121.6355 L90 118.6355 Z" clip-path="url(#clipPath2)" transform="matrix(1,0,0,1,54,71)"/><path fill="none" d="M198.5141 150.5995 L495.5609 150.5995 L551.2457 162.7034" clip-path="url(#clipPath2)" transform="matrix(1,0,0,1,54,71)"/><path stroke="none" d="M559.0632 164.4026 L548.399 156.9679 L550.2686 162.491 L546.275 166.7397 Z" clip-path="url(#clipPath2)" transform="matrix(1,0,0,1,54,71)"/><path fill="none" d="M559.0385 200.9767 L497.0193 214.5923 L206.4984 214.5923" clip-path="url(#clipPath2)" transform="matrix(1,0,0,1,54,71)"/><path stroke="none" d="M198.4984 214.5923 L210.4984 219.5923 L207.4984 214.5923 L210.4984 209.5923 Z" clip-path="url(#clipPath2)" transform="matrix(1,0,0,1,54,71)"/><path fill="none" d="M686.2646 842.4054 L541.1259 895.5929 L206.4988 895.5929" clip-path="url(#clipPath2)" transform="matrix(1,0,0,1,54,71)"/><path stroke="none" d="M198.4988 895.5929 L210.4988 900.5929 L207.4988 895.5929 L210.4988 890.5929 Z" clip-path="url(#clipPath2)" transform="matrix(1,0,0,1,54,71)"/><text x="690.188" y="918.524" stroke="none" clip-path="url(#clipPath2)" font-family="sans-serif" transform="matrix(1,0,0,1,54,71)" xml:space="preserve">JSON object</text><path fill="none" d="M95 32.2254 L95 58.612" clip-path="url(#clipPath2)" transform="matrix(1,0,0,1,54,71)"/><path stroke="none" d="M95 66.612 L100 54.612 L95 57.612 L90 54.612 Z" clip-path="url(#clipPath2)" transform="matrix(1,0,0,1,54,71)"/><path fill="none" d="M95 234.6213 L95 250.6211" clip-path="url(#clipPath2)" transform="matrix(1,0,0,1,54,71)"/><path stroke="none" d="M95 258.6211 L100 246.6211 L95 249.6211 L90 246.6211 Z" clip-path="url(#clipPath2)" transform="matrix(1,0,0,1,54,71)"/><path fill="none" d="M95 298.6141 L95 314.6139" clip-path="url(#clipPath2)" transform="matrix(1,0,0,1,54,71)"/><path stroke="none" d="M95 322.6139 L100 310.6139 L95 313.6139 L90 310.6139 Z" clip-path="url(#clipPath2)" transform="matrix(1,0,0,1,54,71)"/><path fill="none" d="M198.4914 470.5635 L566.088 470.5635" clip-path="url(#clipPath2)" transform="matrix(1,0,0,1,54,71)"/><path stroke="none" d="M574.088 470.5635 L562.088 465.5635 L565.088 470.5635 L562.088 475.5635 Z" clip-path="url(#clipPath2)" transform="matrix(1,0,0,1,54,71)"/><text x="205.044" y="489.252" stroke="none" clip-path="url(#clipPath2)" font-family="sans-serif" transform="matrix(1,0,0,1,54,71)" xml:space="preserve">XHR(remixURL)</text><path fill="none" stroke-dasharray="6 2" d="M95 490.5646 L95 875.5689" clip-path="url(#clipPath2)" transform="matrix(1,0,0,1,54,71)"/><path fill="none" d="M95 362.6069 L95 378.6067" clip-path="url(#clipPath2)" transform="matrix(1,0,0,1,54,71)"/><path stroke="none" d="M95 386.6067 L100 374.6067 L95 377.6067 L90 374.6067 Z" clip-path="url(#clipPath2)" transform="matrix(1,0,0,1,54,71)"/><path fill="none" d="M95 426.5997 L95 442.5995" clip-path="url(#clipPath2)" transform="matrix(1,0,0,1,54,71)"/><path stroke="none" d="M95 450.5995 L100 438.5995 L95 441.5995 L90 438.5995 Z" clip-path="url(#clipPath2)" transform="matrix(1,0,0,1,54,71)"/><path fill="none" d="M95 915.588 L95 937.6202" clip-path="url(#clipPath2)" transform="matrix(1,0,0,1,54,71)"/><path stroke="none" d="M95 945.6202 L100 933.6202 L95 936.6202 L90 933.6202 Z" clip-path="url(#clipPath2)" transform="matrix(1,0,0,1,54,71)"/><path fill="none" d="M95 985.5568 L95 1007.5707" clip-path="url(#clipPath2)" transform="matrix(1,0,0,1,54,71)"/><path stroke="none" d="M95 1015.5707 L100 1003.5707 L95 1006.5707 L90 1003.5707 Z" clip-path="url(#clipPath2)" transform="matrix(1,0,0,1,54,71)"/><path fill="none" d="M95 1075.0211 L95 1121.1129 L132.9165 1121.1129" clip-path="url(#clipPath2)" transform="matrix(1,0,0,1,54,71)"/><path stroke="none" d="M140.9165 1121.1129 L128.9165 1116.1129 L131.9165 1121.1129 L128.9165 1126.1129 Z" clip-path="url(#clipPath2)" transform="matrix(1,0,0,1,54,71)"/><path fill="none" stroke-dasharray="6 2" d="M95 1074.9652 L95 1540.7389" clip-path="url(#clipPath2)" transform="matrix(1,0,0,1,54,71)"/><path fill="none" d="M242.0476 1481.0132 L242.0476 1510.9203 L95 1510.9203 L95 1532.7395" clip-path="url(#clipPath2)" transform="matrix(1,0,0,1,54,71)"/><path stroke="none" d="M95 1540.7395 L100 1528.7395 L95 1531.7395 L90 1528.7395 Z" clip-path="url(#clipPath2)" transform="matrix(1,0,0,1,54,71)"/><path fill="none" d="M95 1580.7305 L95 1621.5728" clip-path="url(#clipPath2)" transform="matrix(1,0,0,1,54,71)"/><path stroke="none" d="M95 1629.5728 L100 1617.5728 L95 1620.5728 L90 1617.5728 Z" clip-path="url(#clipPath2)" transform="matrix(1,0,0,1,54,71)"/><path fill="none" d="M242.0476 1137.2133 L242.0476 1159.2159" clip-path="url(#clipPath2)" transform="matrix(1,0,0,1,54,71)"/><path stroke="none" d="M242.0476 1167.2159 L247.0476 1155.2159 L242.0476 1158.2159 L237.0476 1155.2159 Z" clip-path="url(#clipPath2)" transform="matrix(1,0,0,1,54,71)"/><path fill="none" d="M242.0476 1191.6948 L242.0476 1220.1345" clip-path="url(#clipPath2)" transform="matrix(1,0,0,1,54,71)"/><path stroke="none" d="M242.0476 1228.1345 L247.0476 1216.1345 L242.0476 1219.1345 L237.0476 1216.1345 Z" clip-path="url(#clipPath2)" transform="matrix(1,0,0,1,54,71)"/><path fill="none" stroke-dasharray="6 2" d="M242.0476 1293.8412 L242.0476 1464.3472" clip-path="url(#clipPath2)" transform="matrix(1,0,0,1,54,71)"/><path fill="none" d="M242.0476 1293.8314 L242.0476 1335.8069 L279.4351 1335.8069" clip-path="url(#clipPath2)" transform="matrix(1,0,0,1,54,71)"/><path stroke="none" d="M287.4351 1335.8069 L275.4351 1330.8069 L278.4351 1335.8069 L275.4351 1340.8069 Z" clip-path="url(#clipPath2)" transform="matrix(1,0,0,1,54,71)"/><path fill="none" d="M287.4185 1425.9669 L241.7118 1425.9669 L241.9301 1456.3378" clip-path="url(#clipPath2)" transform="matrix(1,0,0,1,54,71)"/><path stroke="none" d="M241.9876 1464.3375 L246.9012 1452.3019 L241.9229 1455.3378 L236.9014 1452.3738 Z" clip-path="url(#clipPath2)" transform="matrix(1,0,0,1,54,71)"/></g></g></svg>